<?xml version="1.0" encoding="UTF-8"?><svg id="Layer_1" xmlns="http://www.w3.org/2000/svg" xmlns:xlink="http://www.w3.org/1999/xlink" viewBox="0 0 804.01 393"><defs><style>.cls-1{clip-path:url(#clippath-2);}.cls-2{clip-path:url(#clippath-1);}.cls-3{clip-path:url(#clippath);}.cls-4{fill:none;}.cls-5{clip-path:url(#clippath-3);}.cls-6{fill:#177853;}</style><clipPath id="clippath"><rect class="cls-4" x="224.89" y="0" width="354.24" height="225"/></clipPath><clipPath id="clippath-1"><rect class="cls-4" x="224.89" y="0" width="354.24" height="225"/></clipPath><clipPath id="clippath-2"><rect class="cls-4" y="293" width="804.01" height="100"/></clipPath><clipPath id="clippath-3"><rect class="cls-4" y="293" width="804.01" height="100"/></clipPath></defs><g class="cls-3"><g class="cls-2"><path class="cls-6" d="m336.76,207.99l4.5,16.81c-2.25.14-4.5.2-6.8.2h-.07c-60.95-.02-109.51-45.67-109.51-112.5,0-46.89,23.9-83.34,59.22-100.94l4.7,17.48c-26.75,15.66-44.35,45.56-44.35,83.45,0,56.07,39.4,95.49,89.91,95.53h.09c.77,0,1.53-.02,2.3-.05"/><path class="cls-6" d="m309.73,20.25l-4.46-16.58C314.55,1.26,324.34,0,334.46,0,369.67,0,395.75,15.32,414.36,38.48l-15.66,10.1c-13.7-18.9-37.51-31.61-64.24-31.61-8.62,0-16.9,1.12-24.73,3.28"/><path class="cls-6" d="m579.13,41.31v.02l-51.21,179.78h-20.86l-52.18-186.86-34.04,126.18c-1.33,4.91-3.04,9.61-5.11,14.09-1.55,3.38-3.28,6.59-5.22,9.7-7.69,12.38-18.31,22.52-30.8,29.57-5.11,2.9-10.55,5.29-16.22,7.06l-4.39-16.4c3.71-1.22,7.29-2.75,10.71-4.57,1.73-.92,3.42-1.91,5.06-2.99,5.58-3.58,10.62-8.01,14.96-13.09,4.63-5.4,8.46-11.54,11.34-18.29,1.3-3.04,2.41-6.21,3.28-9.47l17.75-65.86L445.57,3.6h17.8l53.15,191.41L569,3.6h.02l10.1,37.71Z"/></g></g><g class="cls-1"><g class="cls-5"><path class="cls-6" d="m48.7,300.53c11.88,0,22.46,5.65,28.55,14.06l6.96-4.49c-8.26-10.29-19.86-17.1-35.51-17.1-4.5,0-8.85.56-12.97,1.63l1.98,7.36c3.48-.96,7.16-1.46,10.99-1.46m10.93,83.27l2,7.48c9.24-2.62,16.59-8.12,22.58-15.53l-6.96-4.35c-4.14,5.71-10.34,10.15-17.62,12.4m-10.93,1.66c-22.46,0-40-17.53-40-42.46,0-16.84,7.82-30.12,19.7-37.09l-2.08-7.77c-15.7,7.82-26.32,24.02-26.32,44.86,0,29.71,21.6,50,48.7,50,1.02,0,2.03-.03,3.02-.09l-2-7.47c-.34.02-.68.02-1.02.02"/><polygon class="cls-6" points="185.07 391.26 185.07 345.32 123.77 345.32 123.77 391.26 115.5 391.26 115.5 294.59 123.77 294.59 123.77 337.78 185.07 337.78 185.07 294.59 193.48 294.59 193.48 391.26 185.07 391.26"/><polygon class="cls-6" points="231.87 391.26 231.87 294.59 293.18 294.59 293.18 302.13 240.13 302.13 240.13 337.93 292.16 337.93 292.16 345.46 240.13 345.46 240.13 383.73 293.18 383.73 293.18 391.26 231.87 391.26"/><polygon class="cls-6" points="410.13 391.26 410.13 305.46 374.91 391.26 371.72 391.26 336.36 305.46 336.36 391.26 328.1 391.26 328.1 294.59 340.42 294.59 373.32 374.74 406.07 294.59 418.53 294.59 418.53 391.26 410.13 391.26"/><polygon class="cls-6" points="558.67 294.6 535.34 379.66 511.71 294.59 504.18 294.59 480.41 379.66 457.08 294.59 447.8 294.59 475.48 391.26 484.76 391.26 507.95 308.21 531.13 391.26 540.41 391.26 563.17 311.38 558.67 294.6"/><rect class="cls-6" x="597.21" y="294.59" width="8.26" height="96.67"/><path class="cls-6" d="m644.02,371.41c6.23,7.25,16.38,14.06,30.15,14.06,19.85,0,25.51-11.01,25.51-19.27,0-13.62-12.9-17.39-26.52-21.01-15.22-4.2-31.45-8.55-31.45-26.38,0-15.8,14.2-25.8,31.74-25.8,14.49,0,25.22,5.07,32.75,13.62l-5.51,6.09c-6.96-8.4-16.81-12.18-27.68-12.18-12.9,0-22.61,7.39-22.61,17.83,0,11.45,12.03,14.78,25.22,18.26,15.65,4.49,32.75,9.42,32.75,28.99,0,12.46-8.26,27.39-34.35,27.39-15.94,0-27.97-6.38-35.36-15.36l5.36-6.23Z"/><polygon class="cls-6" points="742.71 391.26 742.71 294.59 804.01 294.59 804.01 302.13 750.97 302.13 750.97 337.93 803 337.93 803 345.46 750.97 345.46 750.97 383.73 804.01 383.73 804.01 391.26 742.71 391.26"/></g></g></svg>