<?xml version="1.0" encoding="UTF-8"?><svg id="Layer_1" xmlns="http://www.w3.org/2000/svg" viewBox="0 0 804.01 100"><path d="m48.7,7.53c11.88,0,22.46,5.65,28.55,14.06l6.96-4.49C75.95,6.81,64.35,0,48.7,0,44.2,0,39.85.56,35.73,1.63l1.98,7.36c3.48-.96,7.16-1.46,10.99-1.46Zm10.93,83.27l2,7.48c9.24-2.62,16.59-8.12,22.58-15.53l-6.96-4.35c-4.14,5.71-10.34,10.15-17.62,12.4Zm-10.93,1.66c-22.46,0-40-17.53-40-42.46,0-16.84,7.82-30.12,19.7-37.09l-2.08-7.77C10.62,12.96,0,29.16,0,50c0,29.71,21.6,50,48.7,50,1.02,0,2.03-.03,3.02-.09l-2-7.47c-.34.02-.68.02-1.02.02Z"/><path d="m185.07,98.26v-45.94h-61.3v45.94h-8.26V1.59h8.26v43.19h61.3V1.59h8.41v96.67h-8.41Z"/><path d="m231.87,98.26V1.59h61.3v7.54h-53.04v35.8h52.03v7.53h-52.03v38.26h53.04v7.54h-61.3Z"/><path d="m410.13,98.26V12.46l-35.22,85.8h-3.19l-35.36-85.8v85.8h-8.26V1.59h12.32l32.9,80.14L406.07,1.59h12.46v96.67h-8.41Z"/><path d="m558.67,1.6l-23.33,85.06L511.71,1.59h-7.53l-23.77,85.07L457.08,1.59h-9.28l27.68,96.67h9.28l23.19-83.05,23.18,83.05h9.28l22.76-79.88-4.5-16.78Z"/><path d="m597.21,98.26V1.59h8.26v96.67h-8.26Z"/><path d="m644.02,78.41c6.23,7.25,16.38,14.06,30.15,14.06,19.86,0,25.51-11.01,25.51-19.28,0-13.62-12.9-17.39-26.52-21.01-15.22-4.2-31.45-8.55-31.45-26.38,0-15.8,14.2-25.8,31.74-25.8,14.49,0,25.22,5.07,32.75,13.62l-5.51,6.09c-6.96-8.41-16.81-12.18-27.68-12.18-12.9,0-22.61,7.39-22.61,17.83,0,11.45,12.03,14.78,25.22,18.26,15.65,4.49,32.75,9.42,32.75,28.99,0,12.46-8.26,27.39-34.35,27.39-15.94,0-27.97-6.38-35.36-15.36l5.36-6.23Z"/><path d="m742.71,98.26V1.59h61.3v7.54h-53.04v35.8h52.03v7.53h-52.03v38.26h53.04v7.54h-61.3Z"/></svg>