<?xml version="1.0" encoding="utf-8"?>
<!-- Generator: Adobe Illustrator 23.1.0, SVG Export Plug-In . SVG Version: 6.00 Build 0)  -->
<svg version="1.1" xmlns="http://www.w3.org/2000/svg" xmlns:xlink="http://www.w3.org/1999/xlink" x="0px" y="0px"
	 viewBox="0 0 800 800" style="enable-background:new 0 0 800 800;" xml:space="preserve">
<style type="text/css">
	.st0{fill:#246282;}
</style>
<g id="Layer_1">
	<g id="_x31_">
		<path class="st0" d="M798.6,205.6c-37.2,68.5-41.8,147-50.6,223.9c-4.3,37.6-9.7,74.7-20.4,110.1c-2.3,7.7-4.9,15.3-7.8,22.9
			c-8.5,22.4-19.8,43.9-34.7,64.3c-14,19.1-30.7,34.7-49,47.9c-29.2,21-62.9,35.6-97.8,47.6c-63.5,21.9-130.9,32-198,30
			c-27.2-0.8-55.5-1.2-82.1-8c-5.9-1.5-13.3-3-17.7-7.5c-5.7-5.9,0.1-16.6,8.5-14.2c58.7,17.2,127.3,6.5,183.4-17.3
			c64.5-27.4,102.8-80.2,126.2-144.7c6.2-17.1,11.7-34.7,16.8-52.5c0.1-0.4,0.1-0.7,0.1-1.1c0-3.5-5.2-5.1-6.9-1.4
			c-9.5,21-19,41.8-29.4,61.7c-50.7,97.1-168.6,139.5-168.6,103.1c0-3,0.8-6.4,2.5-10.4c23.2-56.2,23.4-122.9,34.9-184.6
			c4-21.7,9.4-42.8,17.7-62.7c32.9-78.7,97.1-135,174.4-168.5c57.7-25,125.8-34.7,185.7-53.5c7.7-2.5,14.3,3,14.3,9.6
			C800.1,202,799.6,203.8,798.6,205.6z"/>
		<path class="st0" d="M563.6,116.1l98.4,72.7c-25.5,6.8-50.9,14.7-75,25.1c-21.5,9.3-41.6,20.1-60.3,32.1l-37.9-28
			c-49-36-109.1-50.7-169.2-41.4c-60.1,9.2-113,41.3-148.9,90.3c-36,49-50.7,109.1-41.5,169.2c9.2,60.1,41.3,113,90.4,148.9
			c39.1,28.7,84.4,43,129.6,43.9c-2,6.3-4.1,12.6-6.5,18.6c-7.4,17.8-6.1,35.4,2.4,48.2c-31.1,4.2-61.1,2.8-86.6-4.7
			c-18.4-5.3-37.2,2.2-47.1,18.5c-2.6,4.3-4.2,9-5.2,13.7c-21.3-9.8-41.8-21.8-61.4-36.2C68.4,631,18.6,548.7,4.2,455.2
			c-14.4-93.5,8.5-186.9,64.5-263.2c56-76.3,138.3-126.1,231.7-140.5C393.9,37.3,487.3,60.1,563.6,116.1z"/>
	</g>
</g>
<g id="Layer_2">
</g>
</svg>
