<?xml version="1.0" encoding="utf-8"?>
<!-- Generator: Adobe Illustrator 24.3.1, SVG Export Plug-In . SVG Version: 6.00 Build 0)  -->
<svg version="1.1" id="Layer_1" xmlns="http://www.w3.org/2000/svg" xmlns:xlink="http://www.w3.org/1999/xlink" x="0px" y="0px"
	 viewBox="0 0 215 34" style="enable-background:new 0 0 215 34;" xml:space="preserve">
<style type="text/css">
	.st0{fill:#272D4E;}
</style>
<g>
	<path class="st0" d="M9.1,1.5H2v5.6h7.1V1.5z"/>
	<path class="st0" d="M68.9,27.2c-6.1,0-8.1-2.7-8.1-4.9h21.9v-1.5c0-6.6-5.1-12.5-14.2-12.5c-8.1,0-15.2,4.3-15.2,11.9
		c0,5.9,3,12.3,15.1,12.3c9.9,0,13.2-4.8,13.9-7.6H75C73.9,26.6,71.2,27.2,68.9,27.2z M75,17.9H60.8C62,12.2,74,12.2,75,17.9z"/>
	<path class="st0" d="M100.2,14.8c-1.9,0-4.5,0.3-6.1,1.7c-1.5,1.2-1.6,3.4-1.6,5.1V32h-7.1V8.9h6.7l0.5,3.1
		c3.3-3.6,7.6-3.3,9.5-3.3h0.2V15C101.5,14.9,100.9,14.8,100.2,14.8z"/>
	<path class="st0" d="M147.5,32.5c-6,0-15.1-2.5-15.1-12.1c0-6.9,5.8-12.1,15.3-12.1c7.6,0,14.9,4,14.9,11.8
		C162.6,29,154.4,32.5,147.5,32.5z M147.6,13.5c-4.8,0-8.1,2.8-8.1,7c0,3.9,3.2,6.6,8.1,6.6c7,0,7.9-5.3,7.9-6.9
		C155.5,16,152,13.5,147.6,13.5z"/>
	<path class="st0" d="M48.3,2.9l-7.1,2.4V32h7.1V13.9h4.8V8.5h-4.8V2.9z"/>
	<path class="st0" d="M27.5,9.3c-2.4,0-6.2,0.5-8.2,2.7l-0.4-3h-6.5v23.1h6.9v-11c0-4.6,3-5.9,5.8-5.9s5.8,1.2,5.8,5.9V32h6.9V21.1
		C37.8,12.8,34.1,9.3,27.5,9.3z"/>
	<path class="st0" d="M182.9,8.9h-7.1V32h7.1V8.9z"/>
	<path class="st0" d="M172.4,1.5h-7.1V32h7.1V1.5z"/>
	<path class="st0" d="M111.8,15.3c0-2.3,10.5-2.3,10.5,0.4h7.1c0-6.1-9.8-7.4-13.1-7.4c-3.6,0-11.8,1.3-11.8,7.6
		c0,9.6,18.7,4.8,18.7,9.3c0,2.6-11.8,2.9-11.8-0.3h-7.1c0.1,2.2,1.5,7.6,12.8,7.6c11.8,0,13.3-5.4,13.3-7.9
		C130.4,14.8,111.8,19.1,111.8,15.3z"/>
	<path class="st0" d="M2,29.6L9.1,32V8.9H2V29.6z"/>
	<path class="st0" d="M206.6,32l-0.4-2.8c-1.9,1.7-5.6,3.3-10.2,3.3c-9.2,0-10.2-4.9-10.2-7.5c0-6.1,5.8-7,13-7.3
		c10.2-0.3,8.1-4.4,1.4-4.4c-3.6,0-5,1.1-5.3,2.4h-7.1c0.1-0.8,1.9-7.2,11.8-7.2c5.5,0,9.9,0.9,11.8,3.8c1.1,1.9,1.6,4,1.6,6.2V32
		H206.6z M201.3,21.4c-5,0.7-8.4,0.2-8.4,3.3c0,2.9,3.8,3.2,4.7,3.2c9.5,0,8.6-7.9,8.6-7.9C204.7,20.7,203.1,21.2,201.3,21.4
		L201.3,21.4z"/>
</g>
</svg>
