<svg width="137" height="20" viewBox="0 0 137 20" fill="none" xmlns="http://www.w3.org/2000/svg">
<path d="M4.58065 0H0V3.6129H4.58065V0Z" fill="white"/>
<path d="M43.1614 16.5803C39.2259 16.5803 37.9355 14.8383 37.9355 13.419H52.0646V12.4512C52.0646 8.19317 48.7743 4.38672 42.9033 4.38672C37.6775 4.38672 33.0968 7.16091 33.0968 12.0641C33.0968 15.8706 35.0323 19.9996 42.8388 19.9996C49.2259 19.9996 51.3549 16.9028 51.8065 15.0964H47.0968C46.3872 16.1932 44.6452 16.5803 43.1614 16.5803ZM47.0968 10.5803H37.9355C38.7097 6.90285 46.4517 6.90285 47.0968 10.5803Z" fill="white"/>
<path d="M63.3548 8.58055C62.129 8.58055 60.4515 8.7741 59.4193 9.67732C58.4515 10.4515 58.387 11.8709 58.387 12.9676V19.6773H53.8064V4.7741H58.129L58.4515 6.7741C60.5806 4.45151 63.3548 4.64506 64.5806 4.64506H64.7096V8.70958C64.1935 8.64506 63.8064 8.58055 63.3548 8.58055Z" fill="white"/>
<path d="M93.8709 19.9996C89.9999 19.9996 84.129 18.3867 84.129 12.1932C84.129 7.74156 87.8709 4.38672 93.9999 4.38672C98.9032 4.38672 103.613 6.96736 103.613 11.9996C103.613 17.7416 98.3225 19.9996 93.8709 19.9996ZM93.9354 7.74156C90.8387 7.74156 88.7096 9.54801 88.7096 12.2577C88.7096 14.7738 90.7741 16.5158 93.9354 16.5158C98.4516 16.5158 99.0322 13.0964 99.0322 12.0641C99.0322 9.35446 96.7741 7.74156 93.9354 7.74156Z" fill="white"/>
<path d="M29.8709 0.90332L25.2903 2.45171V19.6775H29.8709V8.00009H32.9677V4.51622H29.8709V0.90332Z" fill="white"/>
<path d="M16.4517 5.03242C14.9033 5.03242 12.4517 5.355 11.1613 6.77435L10.9033 4.83887H6.70973V19.7421H11.1613V12.6453C11.1613 9.67758 13.0968 8.83887 14.9033 8.83887C16.7097 8.83887 18.6452 9.61306 18.6452 12.6453V19.6776H23.0968V12.6453C23.0968 7.29048 20.7097 5.03242 16.4517 5.03242Z" fill="white"/>
<path d="M116.71 4.77441H112.129V19.6776H116.71V4.77441Z" fill="white"/>
<path d="M109.935 0H105.355V19.6774H109.935V0Z" fill="white"/>
<path d="M70.8387 8.90285C70.8387 7.41898 77.6129 7.41898 77.6129 9.16091H82.1935C82.1935 5.22543 75.871 4.38672 73.7419 4.38672C71.4193 4.38672 66.129 5.22543 66.129 9.28994C66.129 15.4835 78.1935 12.3867 78.1935 15.2899C78.1935 16.9674 70.5806 17.1609 70.5806 15.0964H66C66.0645 16.5158 66.9677 19.9996 74.258 19.9996C81.8709 19.9996 82.8387 16.5158 82.8387 14.9028C82.8387 8.58027 70.8387 11.3545 70.8387 8.90285Z" fill="white"/>
<path d="M0 18.1293L4.58065 19.6776V4.77441H0V18.1293Z" fill="white"/>
<path d="M132 19.6774L131.742 17.871C130.516 18.9677 128.129 20 125.161 20C119.226 20 118.581 16.8387 118.581 15.1613C118.581 11.2258 122.323 10.6451 126.968 10.4516C133.548 10.258 132.194 7.61289 127.871 7.61289C125.548 7.61289 124.645 8.32256 124.452 9.16127H119.871C119.936 8.64515 121.097 4.51611 127.484 4.51611C131.032 4.51611 133.871 5.09676 135.097 6.96773C135.806 8.19353 136.129 9.54837 136.129 10.9677V19.6774H132ZM128.581 12.8387C125.355 13.2903 123.161 12.9677 123.161 14.9677C123.161 16.8387 125.613 17.0322 126.194 17.0322C132.323 17.0322 131.742 11.9355 131.742 11.9355C130.774 12.3871 129.742 12.7097 128.581 12.8387Z" fill="white"/>
</svg>
