<?xml version="1.0" encoding="utf-8"?>
<!-- Generator: Adobe Illustrator 24.0.2, SVG Export Plug-In . SVG Version: 6.00 Build 0)  -->
<svg version="1.1" id="Layer_1" xmlns="http://www.w3.org/2000/svg" xmlns:xlink="http://www.w3.org/1999/xlink" x="0px" y="0px"
	 viewBox="0 0 478.3 147.1" style="enable-background:new 0 0 478.3 147.1;" xml:space="preserve">
<style type="text/css">
	.st0{fill:#006FBE;}
</style>
<g>
	<g id="_x32__1_">
		<path class="st0" d="M7.4,100.5c12,0.3,22.8,5.7,33.7,10.5c5.3,2.3,10.7,4.5,16.3,5.8c1.2,0.3,2.4,0.5,3.6,0.7
			c3.6,0.6,7.4,0.7,11.2,0.3c3.6-0.4,7-1.4,10.2-2.8c5-2.3,9.6-5.6,13.9-9.4c7.8-6.8,14.3-15,19.2-24.1c2-3.7,4.1-7.5,5.3-11.6
			c0.2-0.9,0.6-2,0.4-2.9c-0.4-1.2-2.2-1.3-2.5,0c-2.2,9.1-8.9,17.5-16.4,23.1c-8.6,6.5-18.6,7.5-29,5.7c-2.8-0.5-5.5-1.1-8.3-1.8
			c-0.1,0-0.1,0-0.2-0.1c-0.5-0.3-0.3-1.1,0.3-1c3.5,0.4,7,0.7,10.5,0.8c16.8,0.7,31.6-11.7,26.7-14.5c-0.4-0.2-0.9-0.4-1.6-0.5
			c-9.3-1.2-18.2-6.3-27.3-9.6c-3.2-1.1-6.4-2-9.7-2.5C50.7,65,38.2,69.2,27.8,77C20,82.7,13.5,91.1,6.4,97.6
			c-0.9,0.8-0.7,2.1,0.2,2.6C6.8,100.4,7,100.5,7.4,100.5z"/>
		<path class="st0" d="M39.2,115.7C39.1,115.7,39.1,115.6,39.2,115.7c-1.4-0.6-2.7-1.2-3.9-1.7c-5.6-2.5-11.1-4.9-16.6-6.5l3.9,34.4
			c0.2,2.1,2.2,3.7,4.3,3.4l11.7-1.3c2.1-0.2,3.7-2.1,3.4-4.3L39.2,115.7z"/>
		<path class="st0" d="M13.5,62.2L15.6,81c2.9-2.9,5.9-5.7,9.1-8.1c2.9-2.2,5.9-4,8.9-5.6l-0.8-7.2c-1-9.3,1.6-18.4,7.5-25.7
			s14.2-11.9,23.5-12.9s18.4,1.6,25.7,7.5s11.9,14.2,12.9,23.5c0.8,7.4-0.8,14.6-4.1,20.7c1,0.2,2,0.4,3,0.6c2.9,0.4,5.2,1.9,6.2,4
			c3-3.8,5.1-7.9,6-11.9c0.7-2.9,3.2-4.8,6.1-4.9c0.8,0,1.5,0.1,2.2,0.4c0.3-3.6,0.3-7.3-0.1-11c-1.6-14.5-8.7-27.5-20.1-36.6
			C90.4,4.7,76.2,0.5,61.7,2.1s-27.5,8.7-36.6,20.1C16.1,33.5,11.9,47.8,13.5,62.2z"/>
	</g>
	<g id="text_2_">
		<g>
			<path class="st0" d="M162.7,55.8c-1-1.1-1.5-2.4-1.5-3.9s0.5-2.8,1.5-3.9c1-1.1,2.1-1.6,3.5-1.6s2.5,0.5,3.5,1.6s1.5,2.4,1.5,3.9
				s-0.5,2.8-1.5,3.9c-1,1.1-2.2,1.6-3.5,1.6C164.9,57.4,163.7,56.9,162.7,55.8z"/>
			<path class="st0" d="M170,90.8c-1.6,2.2-3,3.8-4.1,5c-1.9,2-3.4,3-4.5,3c-0.7,0-1.1-0.2-1.3-0.6s-0.3-0.8-0.3-1.3
				c0-0.4,0.2-1.5,0.7-3.4l0.7-2.3l4.4-15.7l0.2-0.9c0.4-1.4,0.6-2.5,0.8-3.2c0.1-0.7,0.2-1.6,0.2-2.5c0-1.6-0.5-3.1-1.4-4.3
				c-1-1.2-2.1-1.8-3.6-1.8c-2.4,0-4.9,1.2-7.5,3.6c-0.9,0.8-1.9,2-3.1,3.5l1.4,1.3c0.1-0.1,0.2-0.3,0.3-0.4c1.9-2,3.4-3,4.5-3
				c0.7,0,1.1,0.2,1.3,0.6s0.3,0.8,0.3,1.3c0,0.4-0.2,1.5-0.7,3.4l-3.8,13.4l-1.3,4.6l0,0L153,92c-0.4,1.4-0.6,2.5-0.8,3.2
				c-0.1,0.7-0.2,1.6-0.2,2.5c0,1.6,0.5,3.1,1.4,4.3c1,1.2,2.1,1.8,3.6,1.8c2.4,0,4.9-1.2,7.5-3.6c1.6-1.5,3.7-4.1,6.2-7.6l0.5-0.7
				L170,90.8z"/>
		</g>
		<g>
			<path class="st0" d="M186.1,81.6v21.3h-6.6V46.5H195c6,0,10.7,1.5,14,4.4s5,7.1,5,12.4s-1.8,9.7-5.5,13.1s-8.6,5.1-14.9,5.1
				L186.1,81.6L186.1,81.6z M186.1,52.5v23.1h6.9c4.6,0,8-1,10.4-3.1s3.6-5,3.6-8.8c0-7.4-4.4-11.2-13.2-11.2H186.1z"/>
			<path class="st0" d="M253,102.9h-6.4v-6.4h-0.2c-2.7,4.9-6.8,7.3-12.4,7.3c-9.6,0-14.4-5.7-14.4-17.1v-24h6.4v23
				c0,8.5,3.2,12.7,9.7,12.7c3.1,0,5.7-1.2,7.8-3.5c2-2.3,3-5.3,3-9.1V62.6h6.4L253,102.9L253,102.9z"/>
			<path class="st0" d="M269.4,97h-0.2v5.8h-6.4V43.3h6.4v26.4h0.2c3.2-5.3,7.8-8,13.9-8c5.2,0,9.2,1.8,12.1,5.4
				c2.9,3.6,4.4,8.4,4.4,14.5c0,6.7-1.6,12.1-4.9,16.2c-3.3,4-7.8,6.1-13.4,6.1C276.1,103.8,272.1,101.6,269.4,97z M269.2,80.8v5.6
				c0,3.3,1.1,6.1,3.2,8.5c2.2,2.3,4.9,3.5,8.2,3.5c3.9,0,7-1.5,9.2-4.5s3.3-7.1,3.3-12.5c0-4.5-1-8-3.1-10.5s-4.9-3.8-8.4-3.8
				c-3.7,0-6.8,1.3-9,3.9C270.4,73.6,269.2,76.9,269.2,80.8z"/>
			<path class="st0" d="M313.3,102.9h-6.4V43.3h6.4V102.9z"/>
			<path class="st0" d="M326.5,52.4c-1.2,0-2.1-0.4-2.9-1.2s-1.2-1.8-1.2-3s0.4-2.2,1.2-3c0.8-0.8,1.8-1.2,2.9-1.2
				c1.2,0,2.2,0.4,3,1.2s1.2,1.8,1.2,3s-0.4,2.1-1.2,2.9C328.6,52,327.6,52.4,326.5,52.4z M329.6,102.9h-6.4V62.6h6.4V102.9z"/>
			<path class="st0" d="M337,101.4v-6.9c3.5,2.6,7.4,3.9,11.6,3.9c5.7,0,8.5-1.9,8.5-5.7c0-1.1-0.2-2-0.7-2.7s-1.1-1.4-2-2
				c-0.8-0.6-1.8-1.1-2.9-1.6s-2.3-0.9-3.6-1.4c-1.8-0.7-3.3-1.4-4.7-2.1c-1.3-0.7-2.5-1.5-3.4-2.4s-1.6-1.9-2-3.1
				c-0.5-1.2-0.7-2.5-0.7-4c0-1.9,0.4-3.6,1.3-5c0.9-1.5,2-2.7,3.5-3.7c1.4-1,3.1-1.7,4.9-2.2s3.8-0.7,5.7-0.7
				c3.5,0,6.6,0.6,9.4,1.8V70c-3-1.9-6.4-2.9-10.2-2.9c-1.2,0-2.3,0.1-3.3,0.4s-1.8,0.7-2.5,1.2s-1.2,1.1-1.6,1.8
				c-0.4,0.7-0.6,1.5-0.6,2.3c0,1,0.2,1.9,0.6,2.6s0.9,1.3,1.7,1.9c0.7,0.6,1.6,1,2.7,1.5c1,0.4,2.2,0.9,3.6,1.5
				c1.8,0.7,3.4,1.4,4.8,2.1s2.6,1.5,3.6,2.4s1.8,1.9,2.3,3.1s0.8,2.6,0.8,4.2c0,2-0.4,3.7-1.3,5.2s-2,2.7-3.5,3.7s-3.2,1.7-5.1,2.2
				s-3.9,0.7-6,0.7C343.6,103.8,340,103,337,101.4z"/>
			<path class="st0" d="M403.7,102.9h-6.4V79.7c0-8.4-3.1-12.6-9.4-12.6c-3.1,0-5.8,1.2-7.9,3.6s-3.2,5.5-3.2,9.3v22.8h-6.4V43.3
				h6.4v26h0.2c3.1-5.1,7.5-7.6,13.2-7.6c9.1,0,13.6,5.5,13.6,16.4v24.8H403.7z"/>
			<path class="st0" d="M445,84.4h-28.4c0.1,4.5,1.3,7.9,3.6,10.4c2.3,2.4,5.5,3.7,9.5,3.7c4.5,0,8.7-1.5,12.5-4.5v6.1
				c-3.5,2.6-8.2,3.9-14,3.9c-5.7,0-10.1-1.8-13.4-5.5c-3.2-3.7-4.9-8.8-4.9-15.4c0-6.3,1.8-11.4,5.3-15.3s8-5.9,13.2-5.9
				c5.3,0,9.3,1.7,12.2,5.1c2.9,3.4,4.3,8.1,4.3,14.2L445,84.4L445,84.4z M438.4,78.9c0-3.7-0.9-6.6-2.7-8.7
				c-1.8-2.1-4.2-3.1-7.4-3.1c-3,0-5.6,1.1-7.7,3.3c-2.1,2.2-3.4,5-3.9,8.5C416.7,78.9,438.4,78.9,438.4,78.9z"/>
			<path class="st0" d="M472.5,69.2c-1.1-0.9-2.8-1.3-4.9-1.3c-2.8,0-5,1.3-6.9,3.9c-1.8,2.6-2.8,6.1-2.8,10.6v20.5h-6.4V62.6h6.4
				v8.3h0.2c0.9-2.8,2.3-5,4.2-6.6c1.9-1.6,4-2.4,6.3-2.4c1.7,0,3,0.2,3.9,0.6L472.5,69.2L472.5,69.2z"/>
		</g>
	</g>
</g>
</svg>
