<?xml version="1.0" encoding="utf-8"?>
<!-- Generator: Adobe Illustrator 24.0.0, SVG Export Plug-In . SVG Version: 6.00 Build 0)  -->
<svg version="1.1" xmlns="http://www.w3.org/2000/svg" xmlns:xlink="http://www.w3.org/1999/xlink" x="0px" y="0px"
	 viewBox="0 0 800 800" style="enable-background:new 0 0 800 800;" xml:space="preserve">
<style type="text/css">
	.st0{fill:#006FBE;}
</style>
<g id="Layer_1">
	<g id="_x32__1_">
		<path class="st0" d="M87.4,548.6c66.2,1.7,125.9,31.7,186.3,57.9c29.5,12.8,59.1,24.6,89.7,31.8c6.6,1.6,13.4,2.9,20.2,4
			c20.1,3.2,40.7,4.1,62.1,1.7c20-2.2,38.6-7.8,56.1-15.7c27.9-12.6,52.9-31.2,76.6-51.8c43.1-37.4,79.2-82.8,106.2-133
			c11-20.4,22.7-41.4,29-63.8c1.4-5,3.5-11.1,2-16.2c-1.9-6.7-12.3-6.9-14,0.2c-12.3,50.5-49.3,96.5-90.7,127.6
			c-47.5,35.8-102.7,41.6-160.2,31.4c-15.3-2.7-30.5-6.2-45.8-9.9c-0.3,0-0.6-0.2-0.9-0.4c-2.6-1.5-1.5-6,1.9-5.6
			c19.5,1.9,38.9,3.8,57.9,4.6c93,4,174.4-64.8,147.6-80.3c-2.2-1.3-5.1-2.2-8.7-2.6c-51.2-6.8-100.4-35-150.7-52.8
			c-17.7-6.3-35.5-11.3-53.6-13.6c-71.9-9.3-140.7,14.1-198.2,56.7c-42.9,31.8-79,77.8-118.3,113.9c-5.1,4.6-3.9,11.8,1,14.6
			C84.1,548.1,85.6,548.6,87.4,548.6z"/>
		<path class="st0" d="M263,632.5c-0.2-0.1-0.3-0.1-0.5-0.2c-7.1-3.1-14.2-6.2-21.3-9.3c-31.1-13.7-61.1-27-91.5-35.8l21.6,190.1
			c1.3,11.7,11.9,20.2,23.7,18.9l64.4-7.1c11.7-1.3,20.2-11.9,18.8-23.6L263,632.5z"/>
		<path class="st0" d="M121.4,337.5l11.7,103.3c15.9-15.9,32.4-31.3,50.4-44.6c16-11.9,32.5-22.1,49.2-30.7l-4.5-39.8
			c-5.6-51.4,9.1-101.8,41.4-142.2c32.3-40.3,78.4-65.6,129.8-71.3c51.3-5.7,101.9,9.1,142.2,41.4c40.3,32.3,65.6,78.4,71.2,129.8
			c4.5,41-4.3,80.4-22.8,114.1c5.5,1.3,11,2.3,16.4,3.1c16.3,2.1,28.6,10.6,34.4,22.2c16.4-21.1,28-43.8,33.4-65.7
			c3.9-15.8,17.4-26.5,33.6-26.8c4.3-0.1,8.4,0.7,12.3,2c1.8-19.8,1.7-40.1-0.5-60.6c-8.8-79.9-48.1-151.6-110.8-201.9
			C546,19.6,467.5-3.3,387.6,5.5C307.7,14.3,236,53.7,185.7,116.4C135.5,179.1,112.6,257.6,121.4,337.5z"/>
	</g>
</g>
<g id="Layer_2">
</g>
<g id="Layer_3">
</g>
</svg>
