<svg width="66" height="82" viewBox="0 0 66 82" fill="none" xmlns="http://www.w3.org/2000/svg">
<path d="M0.869964 56.5287C7.68791 56.6966 13.8276 59.7664 20.0162 62.4936C22.9983 63.8702 26.0996 64.9726 29.2816 65.7872C29.9809 65.962 30.6452 66.0739 31.3305 66.1858C33.4342 66.5284 35.5745 66.5872 37.6939 66.3606C39.6955 66.1241 41.6499 65.5865 43.4909 64.7662C46.3704 63.3736 49.0302 61.5666 51.3857 59.4028C55.8152 55.5314 59.5105 50.8933 62.2944 45.7109C63.5295 43.6256 64.5397 41.4152 65.3083 39.1167C65.4939 38.5898 65.5723 38.0311 65.5391 37.4735C65.4882 37.3286 65.3936 37.2032 65.2683 37.1144C65.143 37.0257 64.9933 36.9781 64.8398 36.9781C64.6863 36.9781 64.5366 37.0257 64.4113 37.1144C64.2861 37.2032 64.1915 37.3286 64.1405 37.4735C62.8958 42.6411 59.0848 47.4172 54.8262 50.5989C49.9312 54.291 44.2531 54.8575 38.3442 53.8365C36.7569 53.5498 35.2184 53.2072 33.6311 52.8156C33.5751 52.8156 33.5751 52.8156 33.5122 52.7526C33.4489 52.7206 33.399 52.6672 33.3712 52.6018C33.3435 52.5365 33.3398 52.4635 33.3607 52.3957C33.3816 52.3279 33.4259 52.2697 33.4856 52.2313C33.5453 52.193 33.6167 52.177 33.687 52.1862C35.673 52.417 37.6659 52.5848 39.6519 52.6407C49.197 53.0393 57.6093 45.9906 54.8262 44.4033C54.541 44.2582 54.2339 44.1614 53.9171 44.1166C48.6306 43.4173 43.5748 40.5363 38.4002 38.6622C36.6087 38.033 34.7646 37.5649 32.8899 37.2637C25.5055 36.3546 18.4008 38.7391 12.4919 43.1726C8.05853 46.4102 4.36635 51.1863 0.331522 54.8784C0.218984 54.9703 0.130308 55.088 0.073038 55.2216C0.0157675 55.3551 -0.00840319 55.5005 0.00258252 55.6454C0.0135682 55.7902 0.0593847 55.9303 0.136135 56.0537C0.212885 56.177 0.318298 56.2801 0.443406 56.3539C0.49713 56.4128 0.563264 56.4591 0.63703 56.4893C0.710797 56.5195 0.790356 56.533 0.869964 56.5287Z" fill="#006FBE"/>
<path d="M18.9397 65.1647C18.8838 65.1647 18.8838 65.1087 18.9397 65.1647C18.1426 64.822 17.4083 64.4654 16.723 64.1997C13.6651 62.7584 10.5136 61.5249 7.28979 60.5075L9.5065 80.0523C9.53762 80.3409 9.62602 80.6204 9.76652 80.8744C9.90702 81.1284 10.0968 81.3518 10.3247 81.5315C10.5526 81.7113 10.8142 81.8437 11.0939 81.9211C11.3737 81.9985 11.6661 82.0193 11.954 81.9823L18.5971 81.248C18.8871 81.2196 19.1683 81.1331 19.4241 80.9935C19.6798 80.854 19.9048 80.6643 20.0856 80.4359C20.2665 80.2074 20.3994 79.9449 20.4764 79.6639C20.5535 79.3829 20.5731 79.0893 20.5341 78.8006L18.9397 65.1647Z" fill="#006FBE"/>
<path d="M4.33844 34.7599L5.52721 45.4169C7.14352 43.7652 8.87256 42.2278 10.7019 40.8157C12.2982 39.6199 13.989 38.5558 15.7576 37.634L15.3031 33.5432C14.7908 28.3295 16.3557 23.1242 19.658 19.0572C22.9603 14.9903 27.7335 12.3901 32.9413 11.8211C38.1491 11.2521 43.3712 12.7601 47.4738 16.018C51.5764 19.2758 54.2285 24.0204 54.8542 29.2217C55.2879 33.2877 54.4759 37.3895 52.5256 40.9835L54.2248 41.3261C54.9493 41.3891 55.6472 41.6294 56.2569 42.0257C56.8667 42.422 57.3695 42.9623 57.7212 43.5988C59.3446 41.6248 60.5101 39.3154 61.1337 36.8368C61.3198 36.0467 61.7653 35.3418 62.3991 34.8348C63.0329 34.3277 63.8184 34.0478 64.6301 34.0397C65.056 34.0273 65.4799 34.1035 65.8748 34.2634C66.0587 32.185 66.04 30.0937 65.8189 28.0189C65.379 23.982 64.1483 20.0714 62.1971 16.5101C60.2459 12.9489 57.6123 9.80681 54.4468 7.26335C51.2812 4.71989 47.6458 2.82483 43.7479 1.68638C39.8499 0.547922 35.766 0.188365 31.7291 0.628232C27.6923 1.0681 23.7816 2.29878 20.2203 4.25C16.6591 6.20123 13.517 8.83478 10.9736 12.0003C8.4301 15.1658 6.53505 18.8014 5.39659 22.6993C4.25814 26.5972 3.89858 30.6811 4.33844 34.718V34.7599Z" fill="#006FBE"/>
</svg>
