<svg width="100" height="88" viewBox="0 0 100 88" fill="none" xmlns="http://www.w3.org/2000/svg">
<path d="M99.6926 19.7196C95.0465 28.269 94.4605 38.0636 93.4141 47.6699C92.9735 52.32 92.119 56.9217 90.8608 61.42C90.5747 62.3757 90.2503 63.328 89.8876 64.2768C88.7984 67.1394 87.3233 69.8397 85.503 72.3029C83.7939 74.6081 81.7273 76.6253 79.3814 78.278C75.6269 80.8454 71.5159 82.848 67.18 84.2218C59.2387 86.9538 50.8678 88.223 42.4737 87.968C39.0326 88.0143 35.597 87.6809 32.2291 86.9739C31.4228 86.8607 30.6609 86.5357 30.0211 86.0321C29.8392 85.8709 29.719 85.6513 29.6814 85.4112C29.6437 85.171 29.6908 84.9253 29.8146 84.7161C29.9383 84.5068 30.1311 84.3473 30.3598 84.2647C30.5884 84.1821 30.8386 84.1818 31.0675 84.2636C38.3926 86.3565 46.9629 85.0694 53.9635 82.108C62.021 78.6861 66.8032 72.0936 69.7228 64.0361C70.4972 61.9432 71.1773 59.7038 71.8157 57.4854C71.8204 57.4402 71.8204 57.3946 71.8157 57.3494C71.8131 57.2479 71.7763 57.1502 71.7112 57.0723C71.6461 56.9943 71.5566 56.9407 71.4572 56.9201C71.3578 56.8995 71.2543 56.9131 71.1636 56.9587C71.0729 57.0044 71.0003 57.0793 70.9576 57.1715C69.7751 59.7876 68.5822 62.4036 67.2846 64.8732C61.006 77.0014 46.2408 82.2859 46.2408 77.7444C46.2541 77.2947 46.361 76.8527 46.5548 76.4468C49.4429 69.4357 49.4743 61.1061 50.9079 53.4252C51.3646 50.7453 52.1047 48.1214 53.1159 45.5979C57.2493 35.751 65.265 28.7189 74.9131 24.5332C82.1126 21.3939 90.6096 20.201 98.1021 17.857C98.2982 17.7838 98.5088 17.7583 98.7167 17.7827C98.9246 17.8071 99.1237 17.8806 99.2975 17.9971C99.4714 18.1137 99.6149 18.27 99.7164 18.4531C99.8179 18.6361 99.8743 18.8407 99.881 19.0499C99.8764 19.2856 99.8115 19.5161 99.6926 19.7196V19.7196Z" fill="#246282"/>
<path d="M70.3612 8.54368L82.6463 17.6163C79.4337 18.4283 76.2857 19.4776 73.2284 20.7556C70.6105 21.8808 68.0904 23.2214 65.6941 24.7634L61.0166 21.2683C58.0102 19.0346 54.5918 17.4174 50.9581 16.5097C47.3244 15.602 43.5471 15.4217 39.8435 15.9793C36.1398 16.5368 32.583 17.8212 29.3776 19.7584C26.1722 21.6957 23.3814 24.2476 21.1659 27.2674C18.9503 30.2872 17.3538 33.7152 16.468 37.3543C15.5822 40.9934 15.4248 44.7718 16.0046 48.472C16.5845 52.1722 17.8902 55.7212 19.8468 58.9149C21.8033 62.1086 24.372 64.8839 27.4051 67.0812C32.1202 70.5466 37.795 72.4626 43.6458 72.5645C43.3946 73.3493 43.133 74.1341 42.8296 74.8876C42.3781 75.8372 42.1696 76.8841 42.2225 77.9343C42.2755 78.9845 42.5883 80.0051 43.133 80.9045C39.5244 81.4564 35.8408 81.2569 32.3129 80.3185C31.2079 79.9807 30.0213 80.0252 28.9448 80.4448C27.8682 80.8644 26.9645 81.6347 26.3796 82.6312C26.0694 83.1594 25.8501 83.736 25.7308 84.3368C19.7733 81.5956 14.5002 77.5633 10.2937 72.5322C6.08713 67.5011 3.05251 61.5972 1.4097 55.2483C-0.233116 48.8994 -0.442968 42.2646 0.795347 35.8246C2.03366 29.3846 4.68913 23.3008 8.56932 18.0139C12.0076 13.3374 16.3336 9.38414 21.3 6.37983C26.2665 3.37553 31.7761 1.37907 37.5143 0.504501C43.2525 -0.370072 49.1067 -0.105627 54.7427 1.28273C60.3786 2.67109 65.6859 5.15616 70.3612 8.596V8.54368Z" fill="#246282"/>
</svg>
