<svg width="206" height="53" viewBox="0 0 206 53" fill="none" xmlns="http://www.w3.org/2000/svg">
<path d="M0.565371 36.4467C4.99621 36.5558 8.98624 38.5508 13.0081 40.3231C14.9461 41.2178 16.9616 41.9342 19.0295 42.4636C19.4839 42.5772 19.9156 42.6499 20.361 42.7226C21.7282 42.9453 23.1191 42.9835 24.4964 42.8362C25.7972 42.6825 27.0673 42.3332 28.2638 41.8001C30.1351 40.8951 31.8637 39.7207 33.3945 38.3145C36.2731 35.7986 38.6746 32.7844 40.4838 29.4165C41.2864 28.0613 41.943 26.6247 42.4425 25.131C42.5631 24.7886 42.6141 24.4255 42.5924 24.0631C42.5594 23.969 42.4979 23.8875 42.4165 23.8298C42.3351 23.7721 42.2378 23.7411 42.138 23.7411C42.0382 23.7411 41.9409 23.7721 41.8595 23.8298C41.7781 23.8875 41.7166 23.969 41.6836 24.0631C40.8746 27.4214 38.3979 30.5253 35.6303 32.593C32.4492 34.9925 28.7591 35.3606 24.9191 34.6971C23.8875 34.5108 22.8877 34.2881 21.8561 34.0336C21.8198 34.0336 21.8198 34.0336 21.7789 33.9927C21.7377 33.9719 21.7053 33.9372 21.6872 33.8947C21.6692 33.8523 21.6668 33.8048 21.6804 33.7607C21.694 33.7167 21.7228 33.6788 21.7616 33.6539C21.8004 33.629 21.8467 33.6186 21.8925 33.6246C23.1831 33.7746 24.4783 33.8836 25.7689 33.92C31.9721 34.179 37.439 29.5982 35.6303 28.5666C35.445 28.4724 35.2454 28.4094 35.0396 28.3803C31.604 27.9259 28.3183 26.0536 24.9554 24.8356C23.7912 24.4267 22.5928 24.1225 21.3744 23.9268C16.5755 23.336 11.9583 24.8856 8.11825 27.7668C5.23707 29.8709 2.8376 32.9748 0.215449 35.3742C0.142313 35.4339 0.0846847 35.5104 0.0474658 35.5972C0.0102469 35.684 -0.00546105 35.7785 0.00167833 35.8726C0.00881771 35.9668 0.0385929 36.0578 0.0884712 36.138C0.13835 36.2181 0.206855 36.2851 0.28816 36.3331C0.323074 36.3714 0.366053 36.4014 0.413992 36.4211C0.461932 36.4407 0.513636 36.4495 0.565371 36.4467Z" fill="#006FBE"/>
<path d="M12.3086 42.059C12.2722 42.059 12.2722 42.0227 12.3086 42.059C11.7905 41.8363 11.3134 41.6046 10.868 41.4319C8.88075 40.4952 6.83262 39.6936 4.73755 39.0324L6.17814 51.7342C6.19836 51.9217 6.25581 52.1033 6.34712 52.2684C6.43842 52.4335 6.56175 52.5787 6.70988 52.6955C6.85801 52.8123 7.02795 52.8984 7.20976 52.9487C7.39157 52.999 7.5816 53.0125 7.7687 52.9884L12.0859 52.5112C12.2744 52.4928 12.4571 52.4365 12.6234 52.3459C12.7896 52.2552 12.9358 52.1319 13.0533 51.9835C13.1708 51.835 13.2572 51.6644 13.3072 51.4818C13.3573 51.2992 13.3701 51.1083 13.3447 50.9207L12.3086 42.059Z" fill="#006FBE"/>
<path d="M2.81942 22.2997L3.59197 29.2254C4.64237 28.1521 5.76604 27.1529 6.95487 26.2352C7.99226 25.4581 9.09109 24.7666 10.2405 24.1675L9.94511 21.509C9.61219 18.1207 10.6292 14.7379 12.7753 12.0949C14.9214 9.45186 18.0234 7.76204 21.4078 7.39224C24.7922 7.02244 28.1859 8.00252 30.8522 10.1197C33.5184 12.2369 35.2419 15.3203 35.6485 18.7005C35.9304 21.3429 35.4026 24.0086 34.1352 26.3443L35.2395 26.5669C35.7103 26.6079 36.1639 26.764 36.5601 27.0216C36.9564 27.2791 37.2832 27.6302 37.5117 28.0439C38.5667 26.761 39.3242 25.2602 39.7294 23.6494C39.8504 23.136 40.1399 22.6779 40.5518 22.3483C40.9637 22.0188 41.4742 21.8369 42.0017 21.8316C42.2785 21.8236 42.5539 21.8731 42.8106 21.977C42.9301 20.6263 42.9179 19.2672 42.7742 17.9189C42.4883 15.2954 41.6886 12.7539 40.4205 10.4395C39.1524 8.12516 37.4409 6.0832 35.3837 4.43027C33.3265 2.77733 30.9639 1.54577 28.4307 0.805912C25.8976 0.0660537 23.2435 -0.167614 20.62 0.118246C17.9966 0.404106 15.4551 1.2039 13.1407 2.47196C10.8263 3.74001 8.78438 5.4515 7.13144 7.50871C5.4785 9.56592 4.24694 11.9286 3.50708 14.4617C2.76723 16.9949 2.53356 19.649 2.81942 22.2724V22.2997Z" fill="#006FBE"/>
<path d="M61.833 19.505C61.3859 19.0051 61.1387 18.3579 61.1387 17.6872C61.1387 17.0165 61.3859 16.3693 61.833 15.8694C62.0352 15.6372 62.2848 15.451 62.5651 15.3234C62.8454 15.1958 63.1497 15.1298 63.4576 15.1298C63.7656 15.1298 64.0699 15.1958 64.3502 15.3234C64.6304 15.451 64.8801 15.6372 65.0823 15.8694C65.5294 16.3693 65.7766 17.0165 65.7766 17.6872C65.7766 18.3579 65.5294 19.0051 65.0823 19.505C64.8809 19.7386 64.6316 19.926 64.3512 20.0545C64.0708 20.1829 63.766 20.2494 63.4576 20.2494C63.1492 20.2494 62.8445 20.1829 62.5641 20.0545C62.2837 19.926 62.0344 19.7386 61.833 19.505V19.505Z" fill="#292F3E"/>
<path d="M65.2235 35.7513C64.633 36.5606 63.9973 37.3359 63.3194 38.0735C62.4378 39.0006 61.741 39.4641 61.229 39.4641C60.9063 39.4641 60.72 39.3733 60.6246 39.1869C60.5316 38.9992 60.4848 38.792 60.4882 38.5825C60.547 38.0481 60.655 37.5202 60.8109 37.0056L61.1381 35.9376L63.1785 28.6665L63.274 28.2484C63.4557 27.5986 63.5512 27.0896 63.6421 26.7669C63.7024 26.382 63.7344 25.9932 63.7375 25.6036C63.7424 24.8858 63.5144 24.1857 63.0876 23.6086C62.8954 23.3463 62.6435 23.1336 62.3526 22.9882C62.0618 22.8427 61.7404 22.7688 61.4153 22.7724C60.3034 22.7724 59.1431 23.3298 57.9342 24.4447C57.4135 24.9481 56.9319 25.4905 56.4937 26.0671L57.1435 26.6715C57.1935 26.6261 57.2389 26.5306 57.2844 26.4852C58.166 25.5581 58.8628 25.0946 59.3748 25.0946C59.6975 25.0946 59.8838 25.1855 59.9747 25.3718C60.0712 25.5584 60.1196 25.7662 60.1156 25.9762C60.0568 26.5107 59.9488 27.0385 59.7929 27.5531L58.0206 33.7699L57.4207 35.9058L57.3253 36.3239C57.139 36.9738 57.0481 37.4828 56.9526 37.81C56.896 38.1937 56.8656 38.5809 56.8618 38.9688C56.8562 39.6867 57.0843 40.3869 57.5116 40.9638C57.7038 41.2261 57.9558 41.4388 58.2466 41.5842C58.5375 41.7296 58.8588 41.8036 59.184 41.8C60.2989 41.8 61.4592 41.2425 62.665 40.1276C63.7263 39.0395 64.6889 37.8594 65.5417 36.6011L65.7734 36.2739L65.2235 35.7513Z" fill="#292F3E"/>
<path d="M72.6948 31.4978V41.3865H69.6318V15.1877H76.8257C79.6114 15.1877 81.7928 15.883 83.3243 17.2327C84.8557 18.5824 85.6465 20.5275 85.6465 22.986C85.685 24.1238 85.4766 25.2565 85.0358 26.3061C84.5949 27.3558 83.9319 28.2975 83.0925 29.0665C81.3747 30.648 79.1025 31.4342 76.1758 31.4342L72.6948 31.4796V31.4978ZM72.6948 17.9917V28.7166H75.8986C78.0345 28.7166 79.6114 28.2621 80.7248 27.276C81.8382 26.2898 82.3972 24.9538 82.3972 23.186C82.3972 19.7504 80.3522 17.9871 76.2713 17.9871L72.6948 17.9917Z" fill="#292F3E"/>
<path d="M103.746 41.3682H100.779V38.3961H100.684C100.156 39.4579 99.3317 40.3437 98.3103 40.9455C97.2889 41.5474 96.1146 41.8395 94.9303 41.7863C90.4706 41.7863 88.2423 39.1399 88.2454 33.8471V22.7087H91.2174V33.3836C91.2174 37.3281 92.6989 39.2913 95.7164 39.2913C96.404 39.3017 97.0855 39.1618 97.7134 38.8816C98.3413 38.6014 98.9005 38.1876 99.352 37.669C100.324 36.4815 100.819 34.9751 100.743 33.4426V22.6632H103.715L103.76 41.3682H103.746Z" fill="#292F3E"/>
<path d="M111.358 38.628H111.267V41.3228H108.295V13.7017H111.267V25.9717H111.358C112.844 23.5131 114.994 22.2589 117.811 22.2589C120.224 22.2589 122.083 23.095 123.428 24.7628C124.773 26.4307 125.473 28.662 125.473 31.4932C125.473 34.6061 124.728 37.1101 123.201 39.0142C122.452 39.9336 121.501 40.6675 120.422 41.1587C119.343 41.6498 118.165 41.8848 116.98 41.8454C114.471 41.7863 112.612 40.7639 111.358 38.628ZM111.267 31.1114V33.7109C111.248 35.166 111.779 36.5747 112.753 37.6554C113.287 38.2064 113.933 38.636 114.648 38.9152C115.363 39.1944 116.129 39.3165 116.895 39.2734C117.661 39.2303 118.409 39.023 119.087 38.6654C119.766 38.3078 120.36 37.8084 120.829 37.201C121.851 35.8059 122.36 33.9063 122.36 31.3977C122.36 29.3073 121.906 27.6849 120.924 26.5215C120.452 25.9497 119.855 25.4936 119.179 25.1879C118.503 24.8823 117.766 24.7354 117.025 24.7583C116.236 24.7278 115.451 24.8753 114.727 25.19C114.003 25.5047 113.36 25.9785 112.844 26.5761C111.789 27.8486 111.23 29.4591 111.267 31.1114V31.1114Z" fill="#292F3E"/>
<path d="M131.735 41.3683H128.768V13.7017H131.735V41.3683Z" fill="#292F3E"/>
<path d="M137.866 17.9281C137.612 17.9381 137.359 17.8934 137.124 17.797C136.889 17.7005 136.677 17.5546 136.503 17.3691C136.144 16.9943 135.943 16.4953 135.943 15.9762C135.943 15.4571 136.144 14.9581 136.503 14.5833C136.681 14.403 136.893 14.2608 137.127 14.1654C137.362 14.0701 137.613 14.0236 137.866 14.0289C138.124 14.0227 138.38 14.0689 138.62 14.1646C138.859 14.2604 139.076 14.4038 139.259 14.5861C139.441 14.7684 139.584 14.9857 139.68 15.2251C139.776 15.4644 139.822 15.7208 139.816 15.9785C139.825 16.2324 139.78 16.4854 139.684 16.7205C139.587 16.9556 139.442 17.1674 139.257 17.3418C139.077 17.5291 138.861 17.6778 138.622 17.7786C138.383 17.8794 138.126 17.9303 137.866 17.9281V17.9281ZM139.302 41.3683H136.335V22.6634H139.302V41.3683Z" fill="#292F3E"/>
<path d="M142.737 40.673V37.4692C144.284 38.6509 146.176 39.2898 148.122 39.287C150.767 39.287 152.067 38.4054 152.067 36.6421C152.093 36.2006 151.981 35.7619 151.744 35.3878C151.493 35.0299 151.177 34.7217 150.813 34.479C150.387 34.1833 149.929 33.9349 149.449 33.7382C148.94 33.5064 148.381 33.3201 147.782 33.0884C146.945 32.7612 146.25 32.4385 145.6 32.1113C145.022 31.818 144.49 31.443 144.019 30.9979C143.607 30.5959 143.295 30.1023 143.11 29.5573C142.877 28.9675 142.766 28.3369 142.783 27.7032C142.756 26.887 142.966 26.0804 143.387 25.381C143.791 24.6918 144.348 24.1042 145.014 23.6632C145.708 23.1954 146.476 22.8496 147.286 22.6407C148.15 22.4167 149.039 22.3082 149.931 22.318C151.429 22.2939 152.915 22.5785 154.298 23.1542V26.1263C152.886 25.2215 151.24 24.7477 149.563 24.7629C149.046 24.7517 148.531 24.8144 148.032 24.9492C147.616 25.0707 147.223 25.2595 146.868 25.5082C146.562 25.7286 146.309 26.0142 146.127 26.3444C145.943 26.67 145.848 27.0383 145.85 27.4123C145.837 27.831 145.932 28.2459 146.127 28.6166C146.323 28.9649 146.593 29.2658 146.918 29.4982C147.301 29.7861 147.721 30.0201 148.168 30.1935C148.622 30.3799 149.19 30.6116 149.84 30.8934C150.676 31.216 151.417 31.5432 152.067 31.8659C152.672 32.1608 153.234 32.5353 153.739 32.9793C154.201 33.368 154.569 33.8557 154.816 34.4062C155.07 35.0247 155.196 35.6876 155.189 36.3558C155.216 37.2007 155.007 38.0364 154.585 38.7689C154.182 39.459 153.625 40.0469 152.958 40.4867C152.231 40.9568 151.431 41.3024 150.59 41.5092C149.681 41.7358 148.746 41.8443 147.809 41.8319C146.051 41.85 144.313 41.4529 142.737 40.673V40.673Z" fill="#292F3E"/>
<path d="M173.699 41.3683H170.722V30.5888C170.722 26.6897 169.286 24.7401 166.36 24.7401C165.663 24.7313 164.973 24.8766 164.339 25.1658C163.705 25.4549 163.143 25.8806 162.692 26.4125C161.68 27.6181 161.15 29.1563 161.206 30.7297V41.3137H158.239V13.7017H161.206V25.7717H161.302C162.742 23.4041 164.783 22.2452 167.428 22.2452C171.654 22.2452 173.74 24.7992 173.74 29.8572V41.3683H173.699Z" fill="#292F3E"/>
<path d="M192.872 32.7794H179.693C179.738 34.8699 180.293 36.4468 181.361 37.6102C181.937 38.1869 182.627 38.6375 183.386 38.9333C184.146 39.229 184.959 39.3634 185.773 39.328C187.891 39.3184 189.94 38.5802 191.577 37.2375V40.0687C189.95 41.2775 187.768 41.8865 185.078 41.8865C182.388 41.8865 180.388 41.0549 178.857 39.3371C177.325 37.6193 176.585 35.2471 176.585 32.1886C176.585 29.262 177.421 26.8944 179.048 25.0857C179.809 24.213 180.752 23.5169 181.81 23.046C182.868 22.5751 184.016 22.3406 185.174 22.359C187.632 22.359 189.491 23.1497 190.836 24.7267C192.181 26.3036 192.831 28.4849 192.831 31.3206L192.881 32.8021L192.872 32.7794ZM189.809 30.23C189.809 28.5122 189.391 27.1625 188.559 26.19C188.135 25.7031 187.605 25.32 187.009 25.0702C186.413 24.8205 185.768 24.7107 185.124 24.7494C184.454 24.7402 183.789 24.8718 183.173 25.1356C182.557 25.3994 182.003 25.7896 181.547 26.2809C180.535 27.3694 179.898 28.7533 179.729 30.23H189.809Z" fill="#292F3E"/>
<path d="M205.633 25.7264C204.965 25.2749 204.165 25.0619 203.361 25.1219C202.061 25.1219 201.039 25.7264 200.157 26.9397C199.276 28.1531 198.857 29.7709 198.857 31.8614V41.3774H195.885V22.6634H198.857V26.4989H198.953C199.299 25.3134 199.975 24.251 200.902 23.436C201.709 22.7224 202.748 22.3267 203.825 22.3226C204.443 22.2934 205.061 22.3876 205.642 22.5998V25.7127L205.633 25.7264Z" fill="#292F3E"/>
</svg>
