<svg width="291" height="53" viewBox="0 0 291 53" fill="none" xmlns="http://www.w3.org/2000/svg">
<path d="M209.086 13.1149C208.497 12.4723 208.182 11.6256 208.206 10.7544C208.187 9.88417 208.502 9.03951 209.086 8.39403C209.347 8.08846 209.672 7.84358 210.038 7.67644C210.404 7.50931 210.802 7.42393 211.204 7.42625C211.609 7.4249 212.009 7.51063 212.378 7.67761C212.746 7.8446 213.075 8.08893 213.34 8.39403C213.933 9.03508 214.253 9.88172 214.231 10.7544C214.259 11.6282 213.938 12.4772 213.34 13.1149C213.073 13.4175 212.744 13.6594 212.376 13.8243C212.007 13.9892 211.608 14.0733 211.204 14.0708C210.803 14.0758 210.405 13.9928 210.039 13.8277C209.673 13.6625 209.348 13.4192 209.086 13.1149V13.1149Z" fill="#292F3E"/>
<path d="M80.6371 13.1149C80.0455 12.474 79.7297 11.6262 79.7578 10.7545C79.7354 9.8837 80.0504 9.03794 80.6371 8.39406C80.8981 8.08788 81.2231 7.84257 81.5891 7.67538C81.9551 7.50818 82.3532 7.42316 82.7556 7.42629C83.1601 7.42533 83.5602 7.51122 83.9288 7.67818C84.2973 7.84514 84.6257 8.08927 84.8917 8.39406C85.4843 9.03512 85.8039 9.88176 85.7828 10.7545C85.8103 11.6283 85.4898 12.4773 84.8917 13.1149C84.6241 13.417 84.2951 13.6585 83.9268 13.8233C83.5584 13.9881 83.1591 14.0725 82.7556 14.0709C82.354 14.0763 81.9562 13.9934 81.5901 13.8283C81.2241 13.6631 80.8987 13.4196 80.6371 13.1149V13.1149Z" fill="#292F3E"/>
<path d="M85.0388 34.2818C84.2785 35.3349 83.4609 36.3455 82.5899 37.3091C81.4569 38.4893 80.5481 39.0794 79.8636 39.0794C79.4565 39.0794 79.2086 38.9614 79.1024 38.7194C78.9778 38.4768 78.915 38.2073 78.9195 37.9346C79.014 37.2392 79.156 36.5511 79.3443 35.8751L79.7869 34.4648L82.4424 24.9936L82.5722 24.4566C82.7964 23.6068 82.944 22.9695 83.0266 22.5328C83.1155 22.0284 83.157 21.5167 83.1505 21.0045C83.1683 20.0732 82.864 19.1644 82.289 18.4316C82.0396 18.0918 81.7134 17.8158 81.337 17.626C80.9607 17.4363 80.5448 17.3383 80.1233 17.3399C78.648 17.3399 77.1314 18.0717 75.5795 19.5233C74.9038 20.1767 74.2747 20.8767 73.697 21.6182L74.5586 22.403L74.7533 22.1788C75.8784 20.9986 76.7852 20.4085 77.4737 20.4085C77.8809 20.4085 78.1287 20.5324 78.229 20.7743C78.3583 21.0154 78.4233 21.2857 78.4179 21.5592C78.3233 22.2545 78.1813 22.9426 77.993 23.6186L75.6916 31.7503L74.9067 34.5179L74.7592 35.049C74.535 35.8987 74.3875 36.536 74.3048 36.9668C74.2164 37.4733 74.175 37.9869 74.1809 38.5011C74.1631 39.4324 74.4674 40.3412 75.0425 41.0739C75.2912 41.4145 75.6172 41.691 75.9937 41.8808C76.3703 42.0706 76.7865 42.1682 77.2082 42.1656C78.6834 42.1656 80.2 41.4339 81.7579 39.9823C83.1502 38.5678 84.4104 37.0291 85.5227 35.3853L85.8296 34.9664L85.0388 34.2818Z" fill="#292F3E"/>
<path d="M106.638 10.9312C108.779 10.9011 110.9 11.3571 112.84 12.2649L113.205 12.4478L114.386 8.67704L114.114 8.54722C113.064 8.02203 110.686 7.13687 106.543 7.13687C96.2399 7.13687 89.5835 14.2181 89.5835 25.1115C89.5835 35.6566 95.8622 42.4664 105.569 42.4664C109.535 42.4664 112.586 41.6698 114.114 40.9263L114.374 40.8024L113.412 37.1555L113.034 37.3384C110.946 38.2311 108.696 38.685 106.425 38.6721C98.7537 38.6721 94.145 33.5559 94.145 24.9816C94.145 16.313 98.9662 10.9312 106.638 10.9312Z" fill="#292F3E"/>
<path d="M130.412 16.6379C129.015 16.6584 127.642 16.9951 126.394 17.6226C125.146 18.2502 124.056 19.1522 123.207 20.2612V5.95111H118.84V41.977H123.207V26.8349C123.159 25.19 123.764 23.5929 124.889 22.3922C126.015 21.1916 127.57 20.4849 129.214 20.4264C133.528 20.4264 134.431 24.2208 134.431 27.4073V41.977H138.797V26.9647C138.797 19.3406 134.277 16.6379 130.412 16.6379Z" fill="#292F3E"/>
<path d="M154.571 16.6375C148.045 16.6375 143.489 22.1196 143.489 29.968C143.489 37.5627 148.027 42.4664 155.055 42.4664C157.707 42.537 160.341 42.0106 162.762 40.9263L163.022 40.8023L162.137 37.4859L161.765 37.6394C159.825 38.4764 157.728 38.8888 155.616 38.8491C150.789 38.8491 147.945 35.7628 147.803 30.3634H164.155V30.0388C164.202 29.4487 164.243 28.8114 164.243 27.9853C164.237 22.751 161.706 16.6375 154.571 16.6375ZM147.903 26.9231C148.358 23.7011 150.264 20.1192 154.217 20.1192C154.918 20.0894 155.617 20.2034 156.271 20.4541C156.926 20.7047 157.522 21.0868 158.024 21.5767C159.617 23.1995 159.888 25.6543 159.918 26.9231H147.903Z" fill="#292F3E"/>
<path d="M194.498 16.6377C191.194 16.6377 188.597 18.1366 186.774 21.093C186.232 19.77 185.307 18.639 184.118 17.8452C182.929 17.0514 181.53 16.6309 180.1 16.6377C178.676 16.5974 177.266 16.9294 176.009 17.6011C174.753 18.2728 173.693 19.2608 172.936 20.4675L172.747 17.1629H168.829L168.864 18.0363C168.947 19.8066 169.018 21.4884 169.018 23.7426V41.9768H173.32V26.876C173.32 23.3354 175.875 20.3849 178.89 20.3849C181.906 20.3849 183.576 22.7807 183.576 26.7875V41.9768H187.895V26.4807C187.895 23.1761 190.326 20.3849 193.206 20.3849C197.296 20.3849 198.151 24.374 198.151 27.7199V41.9768H202.477V27.1239C202.488 17.1452 195.832 16.6377 194.498 16.6377Z" fill="#292F3E"/>
<path d="M213.269 17.21H208.902V41.9767H213.269V17.21Z" fill="#292F3E"/>
<path d="M227.326 27.4369C224.027 26.0265 223.077 25.1177 223.077 23.3887C223.077 21.4296 224.535 20.1609 226.789 20.1609C228.386 20.1698 229.945 20.6413 231.28 21.5181L231.646 21.7541L232.962 18.2725L232.714 18.1191C230.983 17.124 229.016 16.6124 227.019 16.6379C222.263 16.6379 218.811 19.6593 218.811 23.8313C218.811 26.8644 220.947 29.2603 225.166 30.9598C228.288 32.2167 229.38 33.3792 229.38 35.3856C229.38 37.5631 227.668 38.9262 224.918 38.9262C223.061 38.8434 221.254 38.2977 219.661 37.3388L219.295 37.1264L218.044 40.6198L218.292 40.7673C220.27 41.8887 222.508 42.4707 224.783 42.455C230.176 42.455 233.634 39.5045 233.634 34.9902C233.676 31.5204 231.775 29.2603 227.326 27.4369Z" fill="#292F3E"/>
<path d="M243.877 11.4623L239.558 12.9611V17.2099H235.87V20.78H239.581V34.2521C239.581 36.5004 239.581 42.4664 245.937 42.4664C247.203 42.5154 248.466 42.3149 249.654 41.8763L249.879 41.776L249.607 38.2353L249.176 38.3888C248.415 38.6377 247.616 38.7516 246.816 38.7251C244.798 38.7251 243.895 37.3738 243.895 34.3465V20.7741H250.121V17.2099H243.877V11.4623Z" fill="#292F3E"/>
<path d="M265.217 16.7557C264.967 16.7099 264.715 16.6842 264.461 16.679C261.823 16.679 259.428 18.3076 258.094 20.9159L257.958 17.2101H254.022V17.5818C254.14 19.6649 254.193 21.9486 254.193 24.7575V41.9768H258.56V28.5578C258.56 24.8755 260.33 20.8864 264.219 20.8864C264.649 20.8889 265.079 20.9164 265.506 20.969L265.895 21.0162V16.8501L265.582 16.8147L265.217 16.7557Z" fill="#292F3E"/>
<path d="M286.33 17.21L281.391 31.9626L281.12 32.8419C280.76 34.0221 280.411 35.1197 280.116 36.1229C279.727 34.7302 279.308 33.3199 278.836 32.0334L273.495 17.21H268.721L277.425 39.9467C277.556 40.2237 277.638 40.5211 277.667 40.826C277.626 41.3099 275.478 47.1814 270.126 49.1583L269.807 49.2763L271.029 52.9998L271.347 52.9172C273.243 52.3691 274.978 51.3711 276.405 50.008C279.479 47.1106 281.509 42.5904 284.395 34.7302L290.98 17.21H286.33Z" fill="#292F3E"/>
<path d="M56.2186 11.1202C53.5986 15.9414 53.2681 21.4648 52.678 26.8819C52.4296 29.5043 51.9477 32.0992 51.2381 34.6359C51.0768 35.1749 50.8939 35.7119 50.6893 36.2469C50.0752 37.8612 49.2433 39.3839 48.2168 40.773C47.253 42.0729 46.0876 43.2105 44.7647 44.1425C42.6474 45.5903 40.3292 46.7196 37.8841 47.4943C33.4058 49.0349 28.6853 49.7507 23.9517 49.6069C22.0112 49.633 20.0738 49.445 18.1746 49.0463C17.7199 48.9824 17.2902 48.7992 16.9294 48.5152C16.8268 48.4242 16.7591 48.3004 16.7379 48.165C16.7166 48.0296 16.7432 47.891 16.813 47.773C16.8828 47.655 16.9915 47.565 17.1204 47.5185C17.2493 47.4719 17.3905 47.4717 17.5195 47.5179C21.6503 48.6981 26.4832 47.9723 30.431 46.3023C34.9748 44.3726 37.6716 40.655 39.318 36.1112C39.7547 34.931 40.1383 33.6681 40.4982 32.4171C40.5009 32.3916 40.5009 32.3659 40.4982 32.3404C40.4968 32.2832 40.476 32.2281 40.4393 32.1841C40.4026 32.1402 40.3521 32.1099 40.2961 32.0983C40.24 32.0867 40.1817 32.0944 40.1305 32.1201C40.0794 32.1458 40.0384 32.1881 40.0143 32.2401C39.3475 33.7153 38.6748 35.1906 37.9431 36.5832C34.4024 43.4226 26.0761 46.4026 26.0761 43.8415C26.0835 43.588 26.1438 43.3387 26.2531 43.1098C27.8818 39.1561 27.8995 34.4589 28.7079 30.1275C28.9654 28.6162 29.3828 27.1366 29.9531 25.7135C32.284 20.1606 36.8042 16.1951 42.2449 13.8347C46.3049 12.0644 51.0965 11.3917 55.3217 10.0698C55.4322 10.0286 55.5511 10.0142 55.6683 10.0279C55.7855 10.0417 55.8978 10.0831 55.9958 10.1489C56.0938 10.2146 56.1748 10.3028 56.232 10.406C56.2892 10.5092 56.3211 10.6246 56.3248 10.7426C56.3222 10.8754 56.2857 11.0055 56.2186 11.1202V11.1202Z" fill="#246282"/>
<path d="M39.6781 4.81795L46.6059 9.93416C44.7943 10.3921 43.0191 10.9838 41.295 11.7045C39.8187 12.339 38.3975 13.095 37.0462 13.9646L34.4085 11.9936C32.7131 10.734 30.7854 9.82203 28.7363 9.31016C26.6872 8.79829 24.5571 8.69663 22.4685 9.01104C20.38 9.32545 18.3742 10.0497 16.5666 11.1422C14.759 12.2346 13.1852 13.6737 11.9359 15.3766C10.6865 17.0795 9.78614 19.0127 9.28664 21.0649C8.78714 23.117 8.69833 25.2477 9.02532 27.3343C9.35232 29.4209 10.0887 31.4223 11.192 33.2233C12.2953 35.0243 13.7439 36.5893 15.4543 37.8284C18.1132 39.7827 21.3134 40.8631 24.6127 40.9206C24.4711 41.3631 24.3236 41.8057 24.1524 42.2306C23.8979 42.7661 23.7803 43.3565 23.8101 43.9487C23.84 44.5409 24.0164 45.1165 24.3236 45.6237C22.2886 45.9349 20.2113 45.8224 18.2219 45.2932C17.5988 45.1027 16.9296 45.1278 16.3225 45.3645C15.7154 45.6011 15.2058 46.0354 14.876 46.5974C14.7011 46.8953 14.5774 47.2204 14.5101 47.5592C11.1506 46.0134 8.17696 43.7395 5.80481 40.9023C3.43265 38.0652 1.72137 34.7359 0.794955 31.1556C-0.131459 27.5754 -0.249799 23.8339 0.448512 20.2022C1.14682 16.5706 2.64429 13.1398 4.83241 10.1584C6.77135 7.52125 9.21083 5.29191 12.0115 3.59772C14.8122 1.90353 17.9192 0.777687 21.1551 0.284498C24.3909 -0.208691 27.6923 -0.059565 30.8705 0.723359C34.0487 1.50628 37.0416 2.90767 39.6781 4.84746V4.81795Z" fill="#246282"/>
</svg>
