<?xml version="1.0" encoding="UTF-8"?><svg id="Layer_1" xmlns="http://www.w3.org/2000/svg" viewBox="0 0 157.44 100"><path d="m49.72,92.44l2,7.47c-1,.06-2,.09-3.02.09h-.03c-27.09,0-48.67-20.3-48.67-50C0,29.16,10.62,12.96,26.32,5.14l2.09,7.77c-11.89,6.96-19.71,20.25-19.71,37.09,0,24.92,17.51,42.44,39.96,42.46h.04c.34,0,.68,0,1.02-.02Z"/><path d="m37.71,9l-1.98-7.37c4.12-1.07,8.47-1.63,12.97-1.63,15.65,0,27.24,6.81,35.51,17.1l-6.96,4.49c-6.09-8.4-16.67-14.05-28.55-14.05-3.83,0-7.51.5-10.99,1.46Z"/><path d="m157.44,18.36h0s-22.76,79.91-22.76,79.91h-9.27L102.22,15.22l-15.13,56.08c-.59,2.18-1.35,4.27-2.27,6.26-.69,1.5-1.46,2.93-2.32,4.31-3.42,5.5-8.14,10.01-13.69,13.14-2.27,1.29-4.69,2.35-7.21,3.14l-1.95-7.29c1.65-.54,3.24-1.22,4.76-2.03.77-.41,1.52-.85,2.25-1.33,2.48-1.59,4.72-3.56,6.65-5.82,2.06-2.4,3.76-5.13,5.04-8.13.58-1.35,1.07-2.76,1.46-4.21l7.89-29.27L98.08,1.6h7.91l23.62,85.07L152.94,1.6h.01l4.49,16.76Z"/></svg>